<?xml version="1.0" encoding="utf-8"?>
<!-- Generator: Adobe Illustrator 22.0.0, SVG Export Plug-In . SVG Version: 6.00 Build 0)  -->
<svg version="1.1" id="图层_1" xmlns="http://www.w3.org/2000/svg" xmlns:xlink="http://www.w3.org/1999/xlink" x="0px" y="0px"
	 viewBox="0 0 820.1 193" style="enable-background:new 0 0 820.1 193;" xml:space="preserve">
<style type="text/css">
	.st0{fill:#FFFFFF;}
</style>
<g>
	<path class="st0" d="M162.8,0.5v96.8c0,38.1-30.9,69.1-69.1,69.1c-38.1,0-69.1-30.9-69.1-69.1V0.5h-23v96.8
		c0,50.9,41.2,92.1,92.1,92.1c50.8,0,92.1-41.2,92.1-92.1V0.5H162.8z"/>
	<path class="st0" d="M93.8,148.5c28.3,0,51.2-22.9,51.2-51.2V17.8h-22.9v79.6c0,15.6-12.7,28.3-28.3,28.3
		c-15.6,0-28.3-12.7-28.3-28.3V17.8H42.6v79.6C42.6,125.6,65.5,148.5,93.8,148.5z"/>
	<path class="st0" d="M93.8,108.8c6.3,0,11.5-5.1,11.5-11.4c0-0.1,0-0.1,0-0.2V40.3H82.3v56.8c0,0.1,0,0.1,0,0.2
		C82.3,103.7,87.4,108.8,93.8,108.8z"/>
</g>
<g>
	<g>
		<path class="st0" d="M233,172.9h19.9v6h-27.3v-39h26.3v6H233v10.1h16.2v6H233V172.9z"/>
		<path class="st0" d="M286.1,150.6l-11.4,28.2h-7.1l-11.4-28.2h7.6l4.1,10.8c1.2,3,2.2,6.1,3.2,9.1h0.1c0.8-2.6,1.9-5.6,3.2-8.9
			l4.1-11H286.1z"/>
		<path class="st0" d="M305.5,174c1.4,0,2.8-0.1,4.4-0.4c1.5-0.3,3-0.6,4.6-1.2v5.5c-0.9,0.4-2.4,0.8-4.3,1.1
			c-1.9,0.3-3.9,0.5-6,0.5c-2.1,0-4.1-0.3-5.9-0.8c-1.9-0.5-3.5-1.3-4.9-2.5c-1.4-1.1-2.5-2.6-3.3-4.5c-0.8-1.8-1.2-4-1.2-6.6
			c0-2.6,0.4-4.8,1.2-6.7c0.8-1.9,1.8-3.5,3.1-4.8c1.3-1.3,2.8-2.2,4.4-2.8c1.7-0.6,3.4-0.9,5.2-0.9c1.9,0,3.6,0.3,5.1,0.8
			c1.6,0.5,2.9,1.4,4.1,2.6c1.1,1.2,2,2.7,2.7,4.5c0.6,1.8,1,4,1,6.5c0,1,0,1.8-0.1,2.5h-19.2c0.1,1.3,0.4,2.4,0.9,3.3
			c0.5,0.9,1.2,1.7,2,2.2c0.8,0.6,1.8,1,2.9,1.2C303,173.9,304.2,174,305.5,174z M302.6,155.3c-0.9,0-1.7,0.2-2.4,0.5
			c-0.7,0.3-1.3,0.8-1.8,1.3s-0.9,1.2-1.2,1.9c-0.3,0.7-0.5,1.5-0.6,2.4h11.5c0-0.8-0.1-1.6-0.3-2.4c-0.2-0.7-0.6-1.4-1-1.9
			c-0.5-0.6-1-1-1.7-1.3C304.3,155.5,303.5,155.3,302.6,155.3z"/>
		<path class="st0" d="M339.6,156.1H339c-2.2,0-4.1,0.3-5.8,0.9c-1.7,0.6-3,1.6-3.9,2.9v18.9h-7.2v-28.2h5.9l0.7,3.9h0.1
			c0.8-1.4,2-2.6,3.5-3.4c1.5-0.8,3.3-1.2,5.3-1.2c0.7,0,1.4,0,1.9,0.1V156.1z"/>
		<path class="st0" d="M340.2,150.6h7.7l4.4,10.2c1.7,3.9,2.8,6.8,3.5,8.6h0.1c0.5-1.5,1.6-4.2,3.2-8.1l4.5-10.7h7.8l-18.9,41.8
			h-7.1l6.7-15.1L340.2,150.6z"/>
		<path class="st0" d="M393.7,178.8c-0.8,0.2-1.8,0.4-2.9,0.6c-1.1,0.1-2.2,0.2-3.1,0.2c-2.5,0-4.5-0.4-6-1.2
			c-1.6-0.8-2.7-1.9-3.3-3.3c-0.5-1-0.7-2.4-0.7-4.2v-14.6h-5.5v-5.7h5.5v-7.9h7.2v7.9h8.5v5.7h-8.5V170c0,1.1,0.2,1.9,0.5,2.4
			c0.6,0.9,1.8,1.3,3.6,1.3c0.8,0,1.7-0.1,2.5-0.2c0.8-0.1,1.6-0.3,2.3-0.5V178.8z"/>
		<path class="st0" d="M406.7,148.2c0,1.5,0,2.7-0.1,3.6c0,0.9-0.1,1.8-0.3,2.5h0.1c0.4-0.5,0.9-1.1,1.6-1.6c0.6-0.5,1.3-1,2-1.4
			c0.7-0.4,1.6-0.7,2.5-1c0.9-0.3,2-0.4,3.1-0.4c1,0,1.9,0.1,2.8,0.3c0.9,0.2,1.8,0.5,2.6,0.9c0.8,0.4,1.5,0.9,2.2,1.5
			c0.7,0.6,1.2,1.4,1.7,2.2c0.4,0.7,0.7,1.6,0.8,2.5c0.2,0.9,0.3,2.1,0.3,3.4v18.1h-7.2v-17.2c0-0.9,0-1.6-0.1-2.1
			c-0.1-0.6-0.2-1-0.4-1.4c-0.4-0.9-1-1.5-1.8-1.8c-0.8-0.3-1.7-0.5-2.7-0.5c-1.4,0-2.7,0.3-3.9,1c-1.2,0.6-2.3,1.5-3.3,2.7v19.4
			h-7.2v-42.2h7.2V148.2z"/>
		<path class="st0" d="M434,136.7h7.5v7.5H434V136.7z M434.2,150.6h7.2v28.2h-7.2V150.6z"/>
		<path class="st0" d="M456,154.6h0.1c0.4-0.6,1-1.2,1.6-1.7c0.6-0.6,1.4-1.1,2.2-1.5c0.8-0.4,1.7-0.8,2.7-1c1-0.3,2.1-0.4,3.2-0.4
			c1.1,0,2.1,0.1,3.1,0.3c1,0.2,1.9,0.6,2.7,1.1c0.8,0.5,1.6,1.1,2.2,1.9c0.6,0.8,1.1,1.7,1.5,2.8c0.2,0.6,0.3,1.3,0.4,2
			c0.1,0.7,0.1,1.5,0.1,2.5v18.3h-7.2v-17.2c0-0.8,0-1.4-0.1-2c-0.1-0.5-0.2-1-0.3-1.4c-0.4-0.9-0.9-1.5-1.7-1.9
			c-0.7-0.4-1.6-0.6-2.7-0.6c-1.4,0-2.7,0.3-4,0.9c-1.3,0.6-2.4,1.5-3.4,2.8v19.4h-7.2v-28.2h5.9L456,154.6z"/>
		<path class="st0" d="M502.9,179.6c0-0.4,0-0.9,0-1.4c0-0.6,0-1.1,0.1-1.4h-0.1c-0.4,0.3-1,0.7-1.5,1c-0.6,0.3-1.2,0.6-1.9,0.9
			c-0.7,0.3-1.4,0.5-2.3,0.7c-0.8,0.2-1.7,0.3-2.5,0.3c-1.6,0-3.1-0.3-4.6-0.8c-1.5-0.5-2.8-1.4-4-2.5c-1.1-1.2-2.1-2.6-2.8-4.4
			c-0.7-1.8-1.1-4-1.1-6.5c0-2.5,0.4-4.8,1.1-6.7c0.7-1.9,1.7-3.5,2.9-4.8c1.2-1.3,2.6-2.3,4.1-2.9c1.5-0.7,3.1-1,4.8-1
			c1.8,0,3.4,0.4,4.8,1.1c1.4,0.7,2.5,1.7,3.4,2.8h0.1l0.3-3.2h6.3v28.8c0,1.7-0.1,3.1-0.4,4.2c-0.3,1.2-0.7,2.2-1.2,3.2
			c-0.6,1.1-1.5,2-2.5,2.8c-1,0.8-2.1,1.5-3.4,2c-1.3,0.5-2.7,0.9-4.2,1.2c-1.5,0.3-3.2,0.4-4.9,0.4c-1,0-1.9,0-2.8-0.1
			c-0.9-0.1-1.8-0.2-2.6-0.3c-0.8-0.1-1.6-0.3-2.2-0.4c-0.7-0.2-1.2-0.3-1.7-0.5v-5.6c1.3,0.4,2.7,0.8,4.2,1c1.5,0.2,3,0.3,4.6,0.3
			c3.2,0,5.7-0.6,7.5-1.8c1.8-1.2,2.6-3,2.6-5.4V179.6z M496.4,174.1c0.7,0,1.4-0.1,2.1-0.3c0.6-0.2,1.2-0.4,1.8-0.7
			c0.5-0.3,1-0.6,1.5-0.9c0.4-0.3,0.8-0.7,1.1-1v-12.6c-0.8-0.9-1.7-1.6-2.8-2.2c-1.1-0.6-2.3-0.9-3.6-0.9c-0.4,0-0.9,0.1-1.4,0.2
			c-0.5,0.1-1,0.3-1.5,0.6c-0.5,0.3-1,0.6-1.4,1.1c-0.5,0.5-0.9,1-1.2,1.7c-0.3,0.7-0.6,1.5-0.8,2.5c-0.2,1-0.3,2.1-0.3,3.4
			c0,1.4,0.1,2.7,0.4,3.8c0.3,1.1,0.7,2.1,1.3,2.8c0.6,0.8,1.3,1.4,2.1,1.8C494.3,173.9,495.3,174.1,496.4,174.1z"/>
		<path class="st0" d="M530.7,136.7h7.5v7.5h-7.5V136.7z M530.9,150.6h7.2v28.2h-7.2V150.6z"/>
		<path class="st0" d="M552.7,154.6h0.1c0.4-0.6,1-1.2,1.6-1.7c0.6-0.6,1.4-1.1,2.2-1.5c0.8-0.4,1.7-0.8,2.7-1
			c1-0.3,2.1-0.4,3.2-0.4c1.1,0,2.1,0.1,3.1,0.3c1,0.2,1.9,0.6,2.7,1.1c0.8,0.5,1.6,1.1,2.2,1.9c0.6,0.8,1.1,1.7,1.5,2.8
			c0.2,0.6,0.3,1.3,0.4,2c0.1,0.7,0.1,1.5,0.1,2.5v18.3h-7.2v-17.2c0-0.8,0-1.4-0.1-2c-0.1-0.5-0.2-1-0.3-1.4
			c-0.4-0.9-0.9-1.5-1.6-1.9c-0.7-0.4-1.6-0.6-2.7-0.6c-1.4,0-2.7,0.3-4,0.9c-1.3,0.6-2.4,1.5-3.4,2.8v19.4h-7.2v-28.2h5.9
			L552.7,154.6z"/>
		<path class="st0" d="M611.2,178.8c-0.8,0.2-1.8,0.4-2.9,0.6c-1.1,0.1-2.2,0.2-3.1,0.2c-2.5,0-4.5-0.4-6-1.2
			c-1.6-0.8-2.7-1.9-3.3-3.3c-0.5-1-0.7-2.4-0.7-4.2v-14.6h-5.5v-5.7h5.5v-7.9h7.2v7.9h8.5v5.7h-8.5V170c0,1.1,0.2,1.9,0.5,2.4
			c0.6,0.9,1.8,1.3,3.6,1.3c0.8,0,1.7-0.1,2.5-0.2c0.8-0.1,1.6-0.3,2.3-0.5V178.8z"/>
		<path class="st0" d="M624.3,148.2c0,1.5,0,2.7-0.1,3.6c0,0.9-0.1,1.8-0.3,2.5h0.1c0.4-0.5,0.9-1.1,1.6-1.6c0.6-0.5,1.3-1,2-1.4
			c0.7-0.4,1.6-0.7,2.5-1c0.9-0.3,2-0.4,3.1-0.4c1,0,1.9,0.1,2.8,0.3c0.9,0.2,1.8,0.5,2.6,0.9c0.8,0.4,1.5,0.9,2.2,1.5
			c0.7,0.6,1.2,1.4,1.7,2.2c0.4,0.7,0.7,1.6,0.9,2.5c0.2,0.9,0.3,2.1,0.3,3.4v18.1h-7.2v-17.2c0-0.9,0-1.6-0.1-2.1
			c-0.1-0.6-0.2-1-0.4-1.4c-0.4-0.9-1-1.5-1.8-1.8c-0.8-0.3-1.7-0.5-2.7-0.5c-1.4,0-2.7,0.3-3.9,1c-1.2,0.6-2.3,1.5-3.3,2.7v19.4
			h-7.2v-42.2h7.2V148.2z"/>
		<path class="st0" d="M666.6,174c1.4,0,2.8-0.1,4.4-0.4c1.5-0.3,3-0.6,4.6-1.2v5.5c-0.9,0.4-2.4,0.8-4.3,1.1
			c-1.9,0.3-3.9,0.5-6,0.5c-2.1,0-4.1-0.3-5.9-0.8c-1.9-0.5-3.5-1.3-4.9-2.5c-1.4-1.1-2.5-2.6-3.3-4.5c-0.8-1.8-1.2-4-1.2-6.6
			c0-2.6,0.4-4.8,1.2-6.7c0.8-1.9,1.8-3.5,3.1-4.8c1.3-1.3,2.8-2.2,4.4-2.8c1.7-0.6,3.4-0.9,5.2-0.9c1.9,0,3.6,0.3,5.1,0.8
			c1.6,0.5,2.9,1.4,4.1,2.6c1.1,1.2,2,2.7,2.7,4.5c0.6,1.8,1,4,1,6.5c0,1,0,1.8-0.1,2.5h-19.2c0.1,1.3,0.4,2.4,0.9,3.3
			c0.5,0.9,1.2,1.7,2,2.2c0.8,0.6,1.8,1,2.9,1.2C664.2,173.9,665.4,174,666.6,174z M663.8,155.3c-0.9,0-1.7,0.2-2.4,0.5
			c-0.7,0.3-1.3,0.8-1.8,1.3s-0.9,1.2-1.2,1.9c-0.3,0.7-0.5,1.5-0.6,2.4h11.5c0-0.8-0.1-1.6-0.3-2.4c-0.2-0.7-0.6-1.4-1-1.9
			c-0.5-0.6-1-1-1.7-1.3C665.5,155.5,664.7,155.3,663.8,155.3z"/>
		<path class="st0" d="M717.3,178.2c-0.9,0.4-2,0.7-3.3,0.9c-1.3,0.3-2.7,0.4-4.2,0.4c-2.1,0-4.1-0.3-5.9-0.9
			c-1.8-0.6-3.4-1.5-4.8-2.7c-1.4-1.2-2.5-2.7-3.2-4.5c-0.8-1.8-1.2-3.9-1.2-6.4c0-2.7,0.5-5,1.4-7c0.9-1.9,2.1-3.5,3.5-4.7
			c1.4-1.2,3.1-2.1,4.9-2.7c1.8-0.6,3.6-0.9,5.3-0.9c1.3,0,2.6,0.1,3.8,0.3c1.2,0.2,2.3,0.5,3.3,0.9v5.6c-0.9-0.4-1.8-0.7-2.8-0.9
			c-1-0.2-2.1-0.3-3.2-0.3c-1.1,0-2.3,0.2-3.3,0.5c-1.1,0.3-2,0.9-2.8,1.6c-0.8,0.7-1.4,1.7-1.9,2.9c-0.5,1.2-0.7,2.7-0.7,4.4
			c0,1.2,0.2,2.4,0.5,3.5c0.4,1.1,0.9,2,1.6,2.8c0.7,0.8,1.6,1.4,2.7,1.9c1.1,0.5,2.4,0.7,3.8,0.7c1.3,0,2.5-0.1,3.6-0.4
			c1.1-0.3,2.1-0.6,3-0.9V178.2z"/>
		<path class="st0" d="M751.5,164.7c0,2.2-0.3,4.2-1,6.1c-0.7,1.8-1.7,3.4-3,4.7c-1.3,1.3-2.8,2.3-4.7,3c-1.8,0.7-3.8,1.1-6.1,1.1
			c-2.3,0-4.4-0.3-6.2-1.1c-1.8-0.7-3.4-1.7-4.6-3c-1.3-1.3-2.2-2.9-2.9-4.7c-0.7-1.8-1-3.8-1-6.1c0-2.2,0.3-4.2,1-6.1
			c0.7-1.8,1.7-3.4,3-4.7c1.3-1.3,2.8-2.3,4.6-3c1.8-0.7,3.8-1.1,6.1-1.1c2.3,0,4.4,0.4,6.2,1.1c1.8,0.7,3.4,1.7,4.7,3
			c1.3,1.3,2.2,2.9,2.9,4.7C751.1,160.5,751.5,162.5,751.5,164.7z M744,164.7c0-1.5-0.2-2.8-0.5-4c-0.4-1.1-0.9-2.1-1.5-2.9
			c-0.6-0.8-1.4-1.4-2.3-1.8c-0.9-0.4-1.9-0.6-3-0.6c-1.1,0-2,0.2-2.9,0.6c-0.9,0.4-1.7,1-2.3,1.8c-0.6,0.8-1.2,1.7-1.5,2.9
			c-0.4,1.1-0.5,2.5-0.5,4c0,1.5,0.2,2.8,0.5,4c0.4,1.2,0.9,2.1,1.5,2.9c0.7,0.8,1.4,1.3,2.3,1.8c0.9,0.4,1.9,0.6,3,0.6
			c1.1,0,2-0.2,2.9-0.6c0.9-0.4,1.7-1,2.3-1.8c0.6-0.8,1.2-1.7,1.5-2.9C743.8,167.6,744,166.2,744,164.7z"/>
		<path class="st0" d="M756.3,165.3c0-2.5,0.4-4.7,1.1-6.6c0.7-1.9,1.7-3.6,2.9-4.9c1.2-1.3,2.6-2.3,4.2-2.9c1.6-0.7,3.2-1,4.9-1
			c0.8,0,1.5,0.1,2.2,0.2c0.7,0.1,1.4,0.3,2,0.6c0.6,0.2,1.2,0.5,1.8,0.8c0.5,0.3,1,0.6,1.5,0.9h0.1c0-0.4,0-0.9,0-1.6
			c0-0.7,0-1.5,0-2.3v-11.7h7.2v33.8c0,1.9,0,3.5,0.1,4.8c0,1.3,0.1,2.5,0.1,3.6h-6.5l-0.3-3h-0.1c-0.4,0.5-0.9,1-1.5,1.4
			c-0.6,0.5-1.2,0.9-2,1.2c-0.7,0.3-1.5,0.6-2.4,0.8c-0.9,0.2-1.8,0.3-2.8,0.3c-1.6,0-3.1-0.3-4.6-0.8c-1.5-0.5-2.8-1.4-3.9-2.5
			c-1.2-1.1-2.1-2.6-2.8-4.5C756.6,169.9,756.3,167.8,756.3,165.3z M770.4,174.1c0.7,0,1.4-0.1,2-0.3c0.6-0.2,1.2-0.4,1.8-0.7
			c0.6-0.3,1.1-0.6,1.5-1c0.4-0.3,0.8-0.7,1.1-1v-13.4c-0.8-0.7-1.8-1.2-2.8-1.6c-1.1-0.4-2.2-0.6-3.3-0.6c-0.7,0-1.5,0.1-2.3,0.4
			c-0.8,0.3-1.6,0.8-2.2,1.5c-0.7,0.7-1.2,1.7-1.7,2.9c-0.5,1.2-0.7,2.8-0.7,4.7c0,2.8,0.6,5.1,1.7,6.6
			C766.6,173.2,768.2,174,770.4,174.1z"/>
		<path class="st0" d="M807.5,174c1.4,0,2.8-0.1,4.4-0.4c1.5-0.3,3-0.6,4.6-1.2v5.5c-0.9,0.4-2.4,0.8-4.3,1.1
			c-1.9,0.3-3.9,0.5-6,0.5c-2.1,0-4.1-0.3-5.9-0.8c-1.9-0.5-3.5-1.3-4.9-2.5c-1.4-1.1-2.5-2.6-3.3-4.5c-0.8-1.8-1.2-4-1.2-6.6
			c0-2.6,0.4-4.8,1.2-6.7c0.8-1.9,1.8-3.5,3.1-4.8c1.3-1.3,2.8-2.2,4.4-2.8c1.7-0.6,3.4-0.9,5.2-0.9c1.9,0,3.6,0.3,5.1,0.8
			c1.6,0.5,2.9,1.4,4.1,2.6c1.1,1.2,2,2.7,2.7,4.5c0.6,1.8,1,4,1,6.5c0,1,0,1.8-0.1,2.5h-19.2c0.1,1.3,0.4,2.4,0.9,3.3
			c0.5,0.9,1.2,1.7,2,2.2c0.8,0.6,1.8,1,2.9,1.2C805.1,173.9,806.2,174,807.5,174z M804.6,155.3c-0.9,0-1.7,0.2-2.4,0.5
			c-0.7,0.3-1.3,0.8-1.8,1.3s-0.9,1.2-1.2,1.9c-0.3,0.7-0.5,1.5-0.6,2.4h11.5c0-0.8-0.1-1.6-0.3-2.4c-0.2-0.7-0.6-1.4-1-1.9
			c-0.5-0.6-1-1-1.7-1.3C806.3,155.5,805.5,155.3,804.6,155.3z"/>
	</g>
	<g>
		<path class="st0" d="M268.6,111.3c-8.1,0-14.9-0.7-20.3-2c-5.4-1.4-9.8-3.5-13-6.5c-3.2-3-5.5-6.9-6.9-11.7
			c-1.4-4.8-2-10.8-2-17.8V0.5h24.9v72c0,3.5,0.4,6.3,1.1,8.5c0.7,2.2,1.8,4,3.3,5.4c1.5,1.4,3.5,2.4,6.1,2.9
			c2.5,0.5,5.7,0.8,9.3,0.8h37.2c3.7,0,6.8-0.3,9.3-0.8c2.6-0.6,4.6-1.5,6.1-2.9c1.5-1.4,2.6-3.3,3.3-5.5c0.7-2.3,1.1-5.1,1.1-8.6
			V0.5h24.5v72.8c0,7-0.7,13-2,17.8c-1.4,4.8-3.7,8.7-6.9,11.7c-3.2,3-7.6,5.1-13,6.5c-5.4,1.3-12.2,2-20.5,2H268.6z"/>
		<path class="st0" d="M493.1,111.3V0.5h24.7v110.8H493.1z"/>
		<path class="st0" d="M535.7,111.3V76.1c0-5.2,0.5-9.7,1.5-13.6c1-3.9,2.8-7,5.4-9.4c2.6-2.4,6.1-4.2,10.5-5.4
			c4.4-1.2,10.2-1.8,17.2-1.8h64c4.3,0,7.2-0.7,8.7-2.2c1.5-1.5,2.2-4.2,2.2-8.4v-2.8c0-4.3-0.7-7.2-2.1-8.8
			c-1.4-1.5-4.1-2.3-8.1-2.3h-40.6v-21h42.2c10.8,0,18.8,2.4,23.8,7.1c5,4.8,7.5,12.8,7.5,24.2v5.5c0,5.2-0.5,9.5-1.5,13
			c-1,3.5-2.8,6.2-5.3,8.4c-2.5,2.1-5.8,3.6-9.9,4.5c-4.1,0.9-9.2,1.3-15.3,1.3h-64.5c-5.1,0-8.6,0.8-10.4,2.6
			c-1.8,1.7-2.8,5-2.8,9.9v13.3H668v21H535.7z"/>
		<path class="st0" d="M450.7,0.5v80.1L369.3,2.1c-0.5-0.5-1.2-0.7-1.8-1.1v31.6l80.7,76c1.9,1.8,4,3.2,6.3,4
			c2.2,0.8,4.6,1.2,7.2,1.2c3.7,0,6.6-0.8,8.9-2.3c2.3-1.6,3.4-4.2,3.4-7.9V0.5H450.7z"/>
		<polygon class="st0" points="710.9,53.5 710.9,0.5 686.4,0.5 686.4,111.3 710.9,111.3 710.9,97.4 710.9,57.2 		"/>
		<polygon class="st0" points="752.9,54.3 816.3,0.5 783,0.5 721.2,55.9 784.3,111.3 818.1,111.3 		"/>
	</g>
</g>
</svg>
